<svg width="30" height="30" viewBox="0 0 30 30" fill="none" xmlns="http://www.w3.org/2000/svg">
<rect width="30" height="30" rx="15" fill="#1D4FC4"/>
<path d="M13.2001 7.79933V14.0993C13.2001 14.5765 13.3897 15.0342 13.7271 15.3717C14.0645 15.7091 14.5222 15.8987 14.9994 15.8987C15.4766 15.8987 15.9343 15.7091 16.2717 15.3717C16.6092 15.0342 16.7987 14.5765 16.7987 14.0993V9.908C17.9031 10.2974 18.851 11.0351 19.4996 12.0101C20.1482 12.985 20.4623 14.1444 20.3947 15.3134C20.327 16.4825 19.8812 17.5979 19.1245 18.4915C18.3678 19.3851 17.3411 20.0086 16.1992 20.2679C15.0572 20.5273 13.862 20.4085 12.7935 19.9294C11.725 19.4503 10.8411 18.6369 10.2751 17.6118C9.70914 16.5866 9.49168 15.4053 9.6555 14.2458C9.81933 13.0863 10.3556 12.0115 11.1834 11.1833C11.5155 10.8443 11.7003 10.388 11.6979 9.91353C11.6954 9.43903 11.5058 8.98466 11.1703 8.64913C10.8348 8.3136 10.3804 8.12401 9.90589 8.12155C9.43138 8.11909 8.97508 8.30396 8.63609 8.636C7.16373 10.1083 6.24744 12.0457 6.04335 14.1179C5.83926 16.1901 6.36 18.2689 7.51684 20.0002C8.67369 21.7315 10.395 23.0081 12.3876 23.6125C14.3802 24.2169 16.5207 24.1117 18.4444 23.3148C20.3681 22.5179 21.956 21.0787 22.9374 19.2423C23.9189 17.4059 24.2333 15.286 23.827 13.2438C23.4207 11.2016 22.3188 9.36344 20.7091 8.04258C19.0995 6.72172 17.0816 5.99986 14.9994 6C14.5222 6 14.0645 6.18957 13.7271 6.52701C13.3897 6.86445 13.2001 7.32212 13.2001 7.79933Z" fill="white"/>
</svg>
