<svg width="24" height="24" viewBox="0 0 24 24" fill="none" xmlns="http://www.w3.org/2000/svg">
<path fill-rule="evenodd" clip-rule="evenodd" d="M10.75 15.9999V16.9999H9.25V15.9999C9.25 15.3095 8.69036 14.7499 8 14.7499L4 14.7499C4 14 4 14 4 13.2499L8 13.2499C9.51878 13.2499 10.75 14.4811 10.75 15.9999Z" fill="#1E1E1E"/>
<path fill-rule="evenodd" clip-rule="evenodd" d="M17 14.5H13V13H17V14.5Z" fill="#1E1E1E"/>
<path fill-rule="evenodd" clip-rule="evenodd" d="M20 10.9999H13V9.49988H20V10.9999Z" fill="#1E1E1E"/>
<path fill-rule="evenodd" clip-rule="evenodd" d="M6.5 10.5C7.05228 10.5 7.5 10.0523 7.5 9.5C7.5 8.94772 7.05228 8.5 6.5 8.5C5.94772 8.5 5.5 8.94772 5.5 9.5C5.5 10.0523 5.94772 10.5 6.5 10.5ZM6.5 12C7.88071 12 9 10.8807 9 9.5C9 8.11929 7.88071 7 6.5 7C5.11929 7 4 8.11929 4 9.5C4 10.8807 5.11929 12 6.5 12Z" fill="#1E1E1E"/>
</svg>
